# xmcd CD database file
#
# Track frame offsets:
#	225
#	21527
#	38572
#	60992
#	84692
#	109528
#	127267
#	141757
#	163002
#	183843
#	206568
#
# Disc length: 3090 seconds
#
# Revision: 0
# Processed by: cddbd v1.5.2PL0 Copyright (c) Steve Scherf et al.
# Submitted via: CDex 1.51
#
DISCID=950c0f0b
DTITLE=Steve Middleton - Ancient Wonders
DYEAR=1999
DGENRE=New Age
TTITLE0=Oceans of Wisdom
TTITLE1=Temple of the Sun
TTITLE2=Heaven and Earth
TTITLE3=Ancient Wonders
TTITLE4=Equinox
TTITLE5=Celestial Passage
TTITLE6=Gardens of Babylon
TTITLE7=Oracle
TTITLE8=Los Incas
TTITLE9=Sacred Dancers
TTITLE10=Ancient Wonders (Reprise)
EXTD=YEAR: 1999
EXTT0=
EXTT1=
EXTT2=
EXTT3=
EXTT4=
EXTT5=
EXTT6=
EXTT7=
EXTT8=
EXTT9=
EXTT10=
PLAYORDER=
